<?xml version="1.0" encoding="UTF-8"?>
<svg width="151.36mm" height="151.36mm" version="1.1" viewBox="0 0 151.36 151.36" xmlns="http://www.w3.org/2000/svg">
<defs>
<marker id="a" overflow="visible" orient="auto">
<path transform="matrix(.8 0 0 .8 5.92 .8)" d="m-2.5-1c0 2.76-2.24 5-5 5s-5-2.24-5-5 2.24-5 5-5 5 2.24 5 5z" fill="context-stroke" fill-rule="evenodd" stroke="context-stroke" stroke-width="1pt"/>
</marker>
</defs>
<g transform="translate(253.88 141.09)">
<path transform="scale(.26458)" d="m568.01 669.19-131.14-55.174-119.79 76.75 11.949-141.77-110.01-90.215 138.52-32.445 51.804-132.51 73.663 121.72 142.03 8.3219-92.997 107.67z" fill="#ffe680" marker-start="url(#a)"/>
<a transform="matrix(.40067 .9061 -.9279 .36144 -6.0509 -31.567)" fill="#008000">
<path transform="scale(.26458)" d="m-231.99 749.26-60.149-19.224a1493.8 1493.8 22.523 0 1-230.87-95.736l-60.196-31.099a25.054 25.054 82.523 0 1-5.3544-40.797l64.45-58.595a1183 1183 142.52 0 1 157.08-120.44l77.48-49.7a26.298 26.298 22.523 0 1 39.896 16.544l20.036 92.077a1076.8 1076.8 82.523 0 1 23.445 178.63l4.901 104.77a23.575 23.575 142.52 0 1-30.726 23.558z" fill="#008000"/>
</a>
<path transform="scale(.26458)" d="m723.16 562.61-18.902-19.07-26.835 0.90492 12.296-23.869-9.1531-25.242 26.501 4.3178 21.178-16.505 4.0827 26.538 22.242 15.041-23.978 12.084z" fill="#ffe680"/>
<path transform="scale(.26458)" d="m-676.39-533.23a286.03 286.03 0 0 0-283.14 287.93 286.03 286.03 0 0 0 286.98 284.11 286.03 286.03 0 0 0 285.07-286.03l-0.0254-3.834a286.03 286.03 0 0 0-288.88-282.18zm-1.5898 43.852a244.67 241.84 0 0 1 247.11 238.59l0.0215 3.2422a244.67 241.84 0 0 1-243.85 241.84 244.67 241.84 0 0 1-245.48-240.22 244.67 241.84 0 0 1 242.2-243.45z" fill="#008000" stroke-width="3.7795"/>
<path d="m-170.48-324.49a75.678 75.678 0 0 0-74.915 76.181 75.678 75.678 0 0 0 75.93 75.17 75.678 75.678 0 0 0 75.424-75.678l-7e-3 -1.0144a75.678 75.678 0 0 0-76.432-74.66zm-0.42064 11.602a64.735 63.988 0 0 1 65.38 63.127l6e-3 0.85783a64.735 63.988 0 0 1-64.518 63.987 64.735 63.988 0 0 1-64.951-63.558 64.735 63.988 0 0 1 64.083-64.414z" fill="#008000"/>
<path d="m-355.29-143.71a75.678 75.678 0 0 0-74.915 76.181 75.678 75.678 0 0 0 75.93 75.17 75.678 75.678 0 0 0 75.424-75.678l-7e-3 -1.0144a75.678 75.678 0 0 0-76.432-74.66zm-0.42065 11.602a64.735 63.988 0 0 1 65.38 63.127l6e-3 0.85783a64.735 63.988 0 0 1-64.518 63.987 64.735 63.988 0 0 1-64.951-63.558 64.735 63.988 0 0 1 64.083-64.414z" fill="#d40000"/>
<path d="m-350.11-330.11a75.678 75.678 0 0 0-74.915 76.181 75.678 75.678 0 0 0 75.93 75.17 75.678 75.678 0 0 0 75.424-75.678l-7e-3 -1.0144a75.678 75.678 0 0 0-76.432-74.66zm-0.42065 11.602a64.735 63.988 0 0 1 65.38 63.127l6e-3 0.85783a64.735 63.988 0 0 1-64.518 63.987 64.735 63.988 0 0 1-64.951-63.558 64.735 63.988 0 0 1 64.083-64.414z" fill="#d40000" style="paint-order:stroke fill markers"/>
<rect x="-399.01" y="-111.31" width="88.493" height="87.632" ry="10.623" fill="#f00" stroke-width=".24898"/>
<rect x="-407.14" y="-264.85" width="115.18" height="24.422" ry="8.3162" fill="#f00" stroke-width=".29667" style="paint-order:stroke fill markers"/>
<rect x="-227.3" y="-258.72" width="115.18" height="24.422" ry="8.3162" fill="#008000" stroke-width=".29667"/>
<rect transform="rotate(90)" x="-307.82" y="158.1" width="115.18" height="24.422" ry="8.3162" fill="#008000" stroke-width=".29667"/>
</g>
</svg>
